<?xml version="1.0" encoding="UTF-8" standalone="no"?>
<!-- Created with Inkscape (http://www.inkscape.org/) -->

<svg
   xmlns:dc="http://purl.org/dc/elements/1.1/"
   xmlns:cc="http://creativecommons.org/ns#"
   xmlns:rdf="http://www.w3.org/1999/02/22-rdf-syntax-ns#"
   xmlns:svg="http://www.w3.org/2000/svg"
   xmlns="http://www.w3.org/2000/svg"
   xmlns:sodipodi="http://sodipodi.sourceforge.net/DTD/sodipodi-0.dtd"
   xmlns:inkscape="http://www.inkscape.org/namespaces/inkscape"
   width="164.66418mm"
   height="164.66418mm"
   viewBox="0 0 583.45577 583.45577"
   id="svg12628"
   version="1.1"
   inkscape:version="0.91 r13725"
   sodipodi:docname="stap10.svg">
  <defs
     id="defs12630" />
  <sodipodi:namedview
     id="base"
     pagecolor="#ffffff"
     bordercolor="#666666"
     borderopacity="1.0"
     inkscape:pageopacity="0.0"
     inkscape:pageshadow="2"
     inkscape:zoom="0.35"
     inkscape:cx="-620.37077"
     inkscape:cy="246.46435"
     inkscape:document-units="px"
     inkscape:current-layer="layer1"
     showgrid="false"
     inkscape:window-width="1280"
     inkscape:window-height="975"
     inkscape:window-x="0"
     inkscape:window-y="25"
     inkscape:window-maximized="1"
     fit-margin-top="10"
     fit-margin-left="10"
     fit-margin-right="10"
     fit-margin-bottom="10" />
  <metadata
     id="metadata12633">
    <rdf:RDF>
      <cc:Work
         rdf:about="">
        <dc:format>image/svg+xml</dc:format>
        <dc:type
           rdf:resource="http://purl.org/dc/dcmitype/StillImage" />
        <dc:title />
      </cc:Work>
    </rdf:RDF>
  </metadata>
  <g
     inkscape:label="Layer 1"
     inkscape:groupmode="layer"
     id="layer1"
     transform="translate(-61.085054,-195.37077)">
    <path
       d="m 102.85714,237.14286 0,498.07649 m 50,-498.07649 0,498.07649 m 50,-498.07649 0,498.07649 m 50,-498.07649 0,498.07649 m 50,-498.07649 0,498.07649 m 50,-498.07649 0,498.07649 m 50,-498.07649 0,498.07649 m 50,-498.07649 0,498.07649 m 50,-498.07649 0,498.07649 m 50,-498.07649 0,498.07649 m 50,-498.07649 0,498.07649 m -500,-498.07649 498.3802,0 m -498.3802,50 498.3802,0 m -498.3802,50 498.3802,0 m -498.3802,50 498.3802,0 m -498.3802,50 498.3802,0 m -498.3802,50 498.3802,0 m -498.3802,50 498.3802,0 m -498.3802,50 498.3802,0 m -498.3802,50 498.3802,0 m -498.3802,50 498.3802,0 m -498.3802,50 498.3802,0"
       style="fill:none;fill-opacity:0.75;fill-rule:evenodd;stroke:#000000;stroke-width:5;stroke-linecap:square;stroke-linejoin:round;stroke-opacity:1;stroke-miterlimit:4;stroke-dasharray:none"
       id="path13176"
       inkscape:connector-curvature="0"
       sodipodi:nodetypes="cccccccccccccccccccccccccccccccccccccccccccc" />
  </g>
</svg>
